<?xml version="1.0" encoding="iso-8859-1"?>
<!-- Uploaded to: SVG Repo, www.svgrepo.com, Generator: SVG Repo Mixer Tools -->
<svg fill="#000000" height="800px" width="800px" version="1.1" id="Layer_1" xmlns="http://www.w3.org/2000/svg" xmlns:xlink="http://www.w3.org/1999/xlink" 
	 viewBox="0 0 512 512" xml:space="preserve">
<g transform="translate(1 1)">
	<g>
		<g>
			<path d="M399.213,310.467c-1.707-2.56-4.267-4.267-7.68-4.267H306.2v-93.867c0-5.12-3.413-8.533-8.533-8.533h-85.333
				c-5.12,0-8.533,3.413-8.533,8.533V306.2h-85.333c-3.413,0-5.973,1.707-7.68,5.12c-1.707,2.56-0.853,5.973,0.853,8.533
				l136.533,187.733C249.88,509.293,252.44,511,255,511c2.56,0,5.12-1.707,6.827-4.267L398.36,319
				C400.067,316.44,400.92,313.027,399.213,310.467z M255,487.96L135.533,323.267h76.8c5.12,0,8.533-3.413,8.533-8.533v-93.867
				h68.267v93.867c0,5.12,3.413,8.533,8.533,8.533h76.8L255,487.96z"/>
			<path d="M229.4,186.733h51.2c14.507,0,25.6-11.093,25.6-25.6c0-14.507-11.093-25.6-25.6-25.6h-51.2
				c-14.507,0-25.6,11.093-25.6,25.6C203.8,175.64,214.893,186.733,229.4,186.733z M229.4,152.6h51.2
				c5.12,0,8.533,3.413,8.533,8.533s-3.413,8.533-8.533,8.533h-51.2c-5.12,0-8.533-3.413-8.533-8.533S224.28,152.6,229.4,152.6z"/>
			<path d="M229.4,118.467h51.2c14.507,0,25.6-11.093,25.6-25.6c0-14.507-11.093-25.6-25.6-25.6h-51.2
				c-14.507,0-25.6,11.093-25.6,25.6C203.8,107.373,214.893,118.467,229.4,118.467z M229.4,84.333h51.2
				c5.12,0,8.533,3.413,8.533,8.533c0,5.12-3.413,8.533-8.533,8.533h-51.2c-5.12,0-8.533-3.413-8.533-8.533
				C220.867,87.747,224.28,84.333,229.4,84.333z"/>
			<path d="M229.4,50.2h51.2c14.507,0,25.6-11.093,25.6-25.6c0-14.507-11.093-25.6-25.6-25.6h-51.2c-14.507,0-25.6,11.093-25.6,25.6
				C203.8,39.107,214.893,50.2,229.4,50.2z M229.4,16.067h51.2c5.12,0,8.533,3.413,8.533,8.533s-3.413,8.533-8.533,8.533h-51.2
				c-5.12,0-8.533-3.413-8.533-8.533S224.28,16.067,229.4,16.067z"/>
		</g>
	</g>
</g>
</svg>