<?xml version="1.0" encoding="iso-8859-1"?>
<!-- Uploaded to: SVG Repo, www.svgrepo.com, Generator: SVG Repo Mixer Tools -->
<svg height="800px" width="800px" version="1.1" id="Layer_1" xmlns="http://www.w3.org/2000/svg" xmlns:xlink="http://www.w3.org/1999/xlink" 
	 viewBox="0 0 512 512" xml:space="preserve">
<g>
	<polygon style="fill:black;" points="300.138,317.793 300.138,211.862 211.862,211.862 211.862,317.793 114.759,317.793 256,512 
		397.241,317.793 	"/>
	<path style="fill:black;" d="M229.517,176.552h52.966c9.71,0,17.655-7.945,17.655-17.655s-7.945-17.655-17.655-17.655h-52.966
		c-9.71,0-17.655,7.945-17.655,17.655S219.807,176.552,229.517,176.552"/>
	<path style="fill:black;" d="M229.517,105.931h52.966c9.71,0,17.655-7.945,17.655-17.655s-7.945-17.655-17.655-17.655h-52.966
		c-9.71,0-17.655,7.945-17.655,17.655S219.807,105.931,229.517,105.931"/>
	<path style="fill:black;" d="M229.517,35.31h52.966c9.71,0,17.655-7.945,17.655-17.655S292.193,0,282.483,0h-52.966
		c-9.71,0-17.655,7.945-17.655,17.655S219.807,35.31,229.517,35.31"/>
</g>
</svg>